<svg width="1024" height="512" viewBox="0 0 1024 512" fill="none" xmlns="http://www.w3.org/2000/svg">
<path d="M432.406 246.656V256.422H415.688V298.766H404.906V256.422H388.188V246.656H432.406ZM457.875 258.531C461.729 258.531 465.036 259.365 467.797 261.031C470.609 262.698 472.745 265.016 474.203 267.984C475.714 270.901 476.469 274.286 476.469 278.141V282.359H447.875C448.396 285.016 449.698 287.151 451.781 288.766C453.865 290.38 456.417 291.188 459.438 291.188C462.302 291.188 464.906 290.615 467.25 289.469C469.594 288.323 471.469 287.151 472.875 285.953L472.797 295.172C471.547 296.266 469.672 297.385 467.172 298.531C464.724 299.625 462.016 300.172 459.047 300.172C455.141 300.172 451.573 299.286 448.344 297.516C445.167 295.745 442.615 293.323 440.688 290.25C438.812 287.177 437.875 283.661 437.875 279.703C437.875 275.849 438.734 272.333 440.453 269.156C442.172 265.979 444.542 263.427 447.562 261.5C450.583 259.521 454.021 258.531 457.875 258.531ZM457.641 267.203C455.193 267.203 453.135 267.958 451.469 269.469C449.802 270.979 448.656 273.01 448.031 275.562H466.938C466.729 272.75 465.688 270.667 463.812 269.312C461.938 267.906 459.88 267.203 457.641 267.203ZM503.5 258.531C506.417 258.531 508.812 259 510.688 259.938C512.562 260.875 514.047 261.786 515.141 262.672V271.812C513.786 270.823 512.25 269.99 510.531 269.312C508.865 268.635 506.807 268.297 504.359 268.297C502.38 268.297 500.531 268.792 498.812 269.781C497.146 270.771 495.818 272.099 494.828 273.766C493.839 275.432 493.344 277.333 493.344 279.469C493.344 282.698 494.385 285.354 496.469 287.438C498.552 289.521 501.182 290.562 504.359 290.562C506.807 290.562 508.865 290.25 510.531 289.625C512.25 288.948 513.786 288.115 515.141 287.125V296.188C514.047 297.125 512.562 298.036 510.688 298.922C508.812 299.755 506.417 300.172 503.5 300.172C499.49 300.172 495.922 299.234 492.797 297.359C489.724 295.432 487.276 292.906 485.453 289.781C483.682 286.604 482.797 283.167 482.797 279.469C482.797 276.708 483.292 274.078 484.281 271.578C485.323 269.078 486.781 266.865 488.656 264.938C490.531 262.958 492.719 261.396 495.219 260.25C497.771 259.104 500.531 258.531 503.5 258.531ZM545.844 258.531C549.854 258.531 553.214 259.885 555.922 262.594C558.63 265.302 559.984 269.365 559.984 274.781V299H550.062L549.984 276.109C549.984 273.453 549.333 271.474 548.031 270.172C546.781 268.87 545.036 268.219 542.797 268.219C541.026 268.219 539.359 268.792 537.797 269.938C536.286 271.083 534.984 272.438 533.891 274V299H523.969V242.75H533.891V265.172C535.089 263.557 536.703 262.047 538.734 260.641C540.818 259.234 543.188 258.531 545.844 258.531ZM617.797 246.656C620.245 246.656 622.641 247.073 624.984 247.906C627.328 248.74 629.438 249.964 631.312 251.578C633.24 253.193 634.75 255.146 635.844 257.438C636.99 259.677 637.562 262.255 637.562 265.172C637.562 268.714 636.651 271.865 634.828 274.625C633.057 277.333 630.688 279.469 627.719 281.031C624.75 282.594 621.521 283.375 618.031 283.375C615.688 283.375 613.578 283.141 611.703 282.672C609.828 282.203 608.266 281.656 607.016 281.031V299H596.156V246.656H617.797ZM607.016 256.812V272.281C608.161 272.75 609.542 273.167 611.156 273.531C612.823 273.844 614.516 274 616.234 274C619.359 274 621.833 273.141 623.656 271.422C625.531 269.651 626.469 267.568 626.469 265.172C626.469 262.411 625.427 260.328 623.344 258.922C621.26 257.516 618.812 256.812 616 256.812H607.016ZM668.656 258.531C672.667 258.531 676.026 259.885 678.734 262.594C681.443 265.302 682.797 269.365 682.797 274.781V299H672.875L672.797 276.109C672.797 273.453 672.146 271.474 670.844 270.172C669.594 268.87 667.849 268.219 665.609 268.219C663.839 268.219 662.172 268.792 660.609 269.938C659.099 271.083 657.797 272.438 656.703 274V299H646.781V242.75H656.703V265.172C657.901 263.557 659.516 262.047 661.547 260.641C663.63 259.234 666 258.531 668.656 258.531ZM709.828 258.531C711.964 258.531 714.125 259.026 716.312 260.016C718.5 261.005 720.323 262.333 721.781 264V259.547H731.703V299H721.781V292.359C720.635 294.495 718.969 296.344 716.781 297.906C714.594 299.417 712.042 300.172 709.125 300.172C705.948 300.172 703.005 299.365 700.297 297.75C697.641 296.135 695.505 293.792 693.891 290.719C692.276 287.646 691.469 283.922 691.469 279.547C691.469 275.172 692.276 271.422 693.891 268.297C695.557 265.172 697.771 262.776 700.531 261.109C703.344 259.391 706.443 258.531 709.828 258.531ZM711.859 268.219C709.776 268.219 707.979 268.766 706.469 269.859C705.01 270.901 703.865 272.281 703.031 274C702.198 275.719 701.781 277.568 701.781 279.547C701.781 282.516 702.667 285.042 704.438 287.125C706.26 289.208 708.656 290.25 711.625 290.25C713.396 290.25 715.036 289.781 716.547 288.844C718.109 287.906 719.359 286.604 720.297 284.938C721.286 283.219 721.781 281.161 721.781 278.766V273.141C720.375 271.63 718.839 270.432 717.172 269.547C715.557 268.661 713.786 268.219 711.859 268.219ZM753.812 259.547V265.172C755.01 263.557 756.625 262.047 758.656 260.641C760.74 259.234 763.109 258.531 765.766 258.531C769.776 258.531 773.135 259.885 775.844 262.594C778.552 265.302 779.906 269.365 779.906 274.781V299H769.984L769.906 276.109C769.906 273.453 769.255 271.474 767.953 270.172C766.703 268.87 764.958 268.219 762.719 268.219C760.948 268.219 759.281 268.792 757.719 269.938C756.208 271.083 754.906 272.438 753.812 274V299H743.891V259.547H753.812ZM804.438 248.062V259.547H815.375V267.828H804.438V284.859C804.438 286.63 804.828 288.036 805.609 289.078C806.443 290.068 807.667 290.562 809.281 290.562C810.688 290.562 811.885 290.406 812.875 290.094C813.917 289.781 814.88 289.339 815.766 288.766V296.656C814.776 297.646 813.526 298.479 812.016 299.156C810.557 299.833 808.708 300.172 806.469 300.172C802.927 300.172 800.036 299.052 797.797 296.812C795.609 294.521 794.516 291.396 794.516 287.438V267.828H787.406V262.75C789.906 261.865 792.198 260.198 794.281 257.75C796.417 255.302 798.109 252.073 799.359 248.062H804.438ZM843.891 258.531C847.745 258.531 851.26 259.469 854.438 261.344C857.615 263.167 860.167 265.667 862.094 268.844C864.073 271.969 865.062 275.484 865.062 279.391C865.062 283.297 864.073 286.812 862.094 289.938C860.167 293.062 857.615 295.562 854.438 297.438C851.26 299.26 847.745 300.172 843.891 300.172C840.089 300.172 836.573 299.26 833.344 297.438C830.167 295.562 827.615 293.062 825.688 289.938C823.76 286.812 822.797 283.297 822.797 279.391C822.797 275.484 823.76 271.969 825.688 268.844C827.615 265.667 830.167 263.167 833.344 261.344C836.573 259.469 840.089 258.531 843.891 258.531ZM843.891 268.141C842.016 268.141 840.271 268.583 838.656 269.469C837.042 270.354 835.74 271.63 834.75 273.297C833.812 274.964 833.344 276.995 833.344 279.391C833.344 281.786 833.812 283.818 834.75 285.484C835.74 287.151 837.042 288.427 838.656 289.312C840.271 290.146 842.016 290.562 843.891 290.562C845.766 290.562 847.51 290.146 849.125 289.312C850.74 288.427 852.042 287.151 853.031 285.484C854.021 283.818 854.516 281.786 854.516 279.391C854.516 276.995 854.021 274.964 853.031 273.297C852.042 271.63 850.74 270.354 849.125 269.469C847.51 268.583 845.766 268.141 843.891 268.141ZM884.359 259.547V264.547C885.557 263.036 886.99 261.656 888.656 260.406C890.375 259.156 892.562 258.531 895.219 258.531C897.979 258.531 900.479 259.182 902.719 260.484C904.958 261.734 906.703 263.635 907.953 266.188C909.516 264.052 911.339 262.255 913.422 260.797C915.505 259.286 917.927 258.531 920.688 258.531C923.344 258.531 925.766 259.156 927.953 260.406C930.141 261.604 931.885 263.401 933.188 265.797C934.542 268.193 935.219 271.188 935.219 274.781V299H925.297L925.219 276.109C925.219 273.453 924.516 271.474 923.109 270.172C921.755 268.87 919.958 268.219 917.719 268.219C916 268.219 914.516 268.766 913.266 269.859C912.016 270.901 910.844 272.151 909.75 273.609V299H899.828L899.75 276.109C899.75 273.453 899.047 271.474 897.641 270.172C896.286 268.87 894.516 268.219 892.328 268.219C890.661 268.219 889.177 268.74 887.875 269.781C886.573 270.771 885.401 271.943 884.359 273.297V299H874.438V259.547H884.359ZM959.281 258.531C961.729 258.531 963.995 258.896 966.078 259.625C968.161 260.354 969.776 261.188 970.922 262.125V270.875C969.672 270.042 968.135 269.234 966.312 268.453C964.542 267.672 962.693 267.281 960.766 267.281C958.891 267.281 957.406 267.698 956.312 268.531C955.219 269.365 954.672 270.354 954.672 271.5C954.672 272.333 954.984 273.115 955.609 273.844C956.234 274.521 957.432 275.12 959.203 275.641L963.656 277.125C969.646 278.896 972.641 282.359 972.641 287.516C972.641 289.964 971.938 292.151 970.531 294.078C969.177 295.953 967.328 297.438 964.984 298.531C962.693 299.625 960.141 300.172 957.328 300.172C954.672 300.172 952.094 299.755 949.594 298.922C947.094 298.089 945.193 297.177 943.891 296.188V287.516C944.88 288.193 946.078 288.844 947.484 289.469C948.891 290.094 950.349 290.615 951.859 291.031C953.37 291.396 954.75 291.578 956 291.578C957.979 291.578 959.49 291.24 960.531 290.562C961.625 289.833 962.172 288.818 962.172 287.516C962.172 286.526 961.729 285.745 960.844 285.172C959.958 284.599 958.656 284.026 956.938 283.453L952.094 281.734C949.073 280.745 946.99 279.339 945.844 277.516C944.698 275.693 944.125 273.531 944.125 271.031C944.125 268.531 944.75 266.37 946 264.547C947.302 262.672 949.099 261.214 951.391 260.172C953.682 259.078 956.312 258.531 959.281 258.531Z" fill="#343A40"/>
<path d="M282.813 291.089C286.767 286.921 289.568 282.013 290.995 276.746C291.701 274.136 292.054 271.464 292.048 268.783H205.952C205.951 271.395 206.294 273.998 206.975 276.542C208.403 281.975 211.277 287.037 215.363 291.319C219.47 295.613 224.618 299.057 230.436 301.4C236.253 303.744 242.594 304.93 249 304.872C255.453 304.902 261.832 303.681 267.679 301.298C273.526 298.914 278.695 295.428 282.813 291.089ZM307.273 234.02C309.098 239.143 310.025 244.478 310.021 249.844V308.7C310.021 311.301 308.941 313.813 306.982 315.771C305.023 317.73 302.317 319.001 299.366 319.35C296.415 319.7 293.42 319.102 290.935 317.669C288.449 316.237 286.644 314.066 285.852 311.559C285.627 310.755 285.103 310.038 284.363 309.521C283.623 309.004 282.708 308.715 281.76 308.7H281.205C280.257 308.715 279.342 309.004 278.602 309.521C277.862 310.038 277.339 310.755 277.113 311.559C276.396 313.826 274.847 315.825 272.704 317.25C270.561 318.674 267.942 319.446 265.248 319.446C262.555 319.446 259.936 318.674 257.793 317.25C255.65 315.825 254.101 313.826 253.383 311.559C253.158 310.755 252.635 310.038 251.895 309.521C251.155 309.004 250.239 308.715 249.292 308.7H248.708C247.76 308.715 246.845 309.004 246.105 309.521C245.365 310.038 244.841 310.755 244.616 311.559C243.899 313.826 242.35 315.825 240.207 317.25C238.064 318.674 235.445 319.446 232.751 319.446C230.058 319.446 227.439 318.674 225.296 317.25C223.152 315.825 221.603 313.826 220.886 311.559C220.661 310.755 220.138 310.038 219.397 309.521C218.657 309.004 217.742 308.715 216.795 308.7H216.239C215.292 308.715 214.377 309.004 213.636 309.521C212.896 310.038 212.373 310.755 212.148 311.559C211.356 314.066 209.55 316.237 207.065 317.669C204.58 319.102 201.584 319.7 198.634 319.35C195.683 319.001 192.977 317.73 191.018 315.771C189.058 313.813 187.979 311.301 187.979 308.7V249.819C187.975 244.453 188.902 239.118 190.727 233.995L194.03 234.837C193.278 237.006 192.894 239.259 192.891 241.524C192.891 247.494 195.606 253.22 200.44 257.441C205.274 261.663 211.83 264.034 218.665 264.034C225.501 264.034 232.057 261.663 236.891 257.441C241.724 253.22 244.44 247.494 244.44 241.524H253.529C253.529 247.494 256.244 253.22 261.078 257.441C265.912 261.663 272.467 264.034 279.303 264.034C286.139 264.034 292.695 261.663 297.528 257.441C302.362 253.22 305.078 247.494 305.078 241.524C305.077 239.258 304.693 237.005 303.938 234.837L307.273 234.02Z" fill="#ED664C"/>
<path d="M307.274 234.021L303.972 234.865C302.138 229.723 298.255 225.326 293.027 222.47C287.799 219.614 281.573 218.489 275.477 219.297C269.38 220.106 263.818 222.796 259.797 226.878C255.776 230.961 253.563 236.167 253.559 241.552H244.471C244.466 236.167 242.253 230.962 238.233 226.88C234.212 222.797 228.649 220.108 222.553 219.299C216.458 218.491 210.232 219.616 205.004 222.472C199.777 225.327 195.894 229.724 194.059 234.865L190.756 234.021C194.622 223.166 202.36 213.675 212.842 206.935C223.324 200.196 235.999 196.56 249.015 196.56C262.031 196.56 274.706 200.196 285.188 206.935C295.67 213.675 303.409 223.166 307.274 234.021Z" fill="#ED664C"/>
<path d="M303.943 234.863C304.695 237.031 305.079 239.283 305.082 241.549C305.06 247.205 302.591 252.645 298.171 256.779C293.751 260.913 287.706 263.437 281.247 263.844C274.787 264.252 268.39 262.513 263.335 258.977C258.281 255.44 254.943 250.367 253.989 244.772C253.036 239.177 254.538 233.475 258.194 228.806C261.85 224.137 267.39 220.847 273.706 219.594C280.022 218.341 286.646 219.218 292.253 222.049C297.86 224.88 302.035 229.456 303.943 234.861V234.863ZM292.545 241.549C292.545 239.267 291.771 237.037 290.319 235.139C288.868 233.242 286.805 231.764 284.391 230.891C281.977 230.017 279.321 229.789 276.759 230.234C274.197 230.679 271.843 231.778 269.996 233.391C268.149 235.005 266.89 237.06 266.381 239.298C265.871 241.536 266.133 243.855 267.132 245.963C268.132 248.071 269.825 249.873 271.998 251.141C274.17 252.408 276.724 253.085 279.336 253.085C281.071 253.086 282.79 252.789 284.393 252.21C285.996 251.631 287.453 250.781 288.68 249.709C289.907 248.638 290.88 247.366 291.543 245.965C292.207 244.565 292.547 243.064 292.545 241.549Z" fill="#FDC75B"/>
<path d="M205.955 268.757H292.05C292.058 271.438 291.705 274.111 290.998 276.72L289.945 276.516H206.977C206.294 273.973 205.951 271.369 205.955 268.757Z" fill="white"/>
<path d="M281.967 233.485C283.013 233.485 284.036 233.756 284.906 234.263C285.775 234.771 286.453 235.492 286.854 236.336C287.254 237.18 287.359 238.109 287.155 239.005C286.951 239.901 286.447 240.724 285.707 241.37C284.967 242.017 284.025 242.456 282.999 242.635C281.973 242.813 280.909 242.721 279.943 242.372C278.976 242.022 278.15 241.43 277.569 240.67C276.988 239.911 276.678 239.018 276.678 238.104C276.678 237.497 276.814 236.897 277.08 236.336C277.346 235.776 277.735 235.266 278.227 234.837C278.718 234.409 279.301 234.068 279.943 233.836C280.584 233.604 281.272 233.485 281.967 233.485Z" fill="white"/>
<path d="M272.731 243.847C273.251 243.852 273.756 243.991 274.185 244.246C274.614 244.501 274.947 244.862 275.142 245.282C275.337 245.702 275.385 246.164 275.28 246.608C275.175 247.052 274.922 247.459 274.553 247.777C274.184 248.096 273.715 248.313 273.206 248.399C272.696 248.486 272.169 248.439 271.69 248.264C271.211 248.09 270.801 247.795 270.514 247.418C270.226 247.04 270.073 246.597 270.073 246.144C270.081 245.533 270.365 244.949 270.863 244.519C271.36 244.089 272.032 243.848 272.731 243.847Z" fill="white"/>
<path d="M218.666 219.039C223.764 219.039 228.747 220.359 232.986 222.833C237.224 225.307 240.527 228.822 242.478 232.936C244.428 237.049 244.939 241.575 243.944 245.941C242.949 250.307 240.495 254.318 236.89 257.466C233.285 260.614 228.693 262.758 223.693 263.626C218.693 264.495 213.511 264.049 208.801 262.345C204.092 260.641 200.066 257.756 197.234 254.055C194.402 250.353 192.891 246.001 192.891 241.549C192.892 239.283 193.276 237.03 194.03 234.862C195.67 230.276 198.945 226.267 203.377 223.421C207.808 220.575 213.165 219.039 218.666 219.039ZM231.876 241.549C231.876 239.267 231.101 237.037 229.65 235.14C228.198 233.243 226.135 231.764 223.722 230.891C221.308 230.018 218.652 229.789 216.09 230.234C213.527 230.679 211.174 231.778 209.326 233.391C207.479 235.005 206.221 237.06 205.711 239.298C205.201 241.536 205.463 243.855 206.463 245.963C207.463 248.072 209.156 249.873 211.328 251.141C213.5 252.408 216.054 253.085 218.666 253.085C220.402 253.087 222.12 252.789 223.724 252.21C225.327 251.631 226.784 250.781 228.011 249.709C229.238 248.638 230.211 247.366 230.874 245.965C231.537 244.565 231.877 243.064 231.876 241.549Z" fill="#FDC75B"/>
<path d="M221.326 233.485C222.372 233.485 223.395 233.756 224.264 234.263C225.134 234.771 225.812 235.492 226.213 236.336C226.613 237.18 226.718 238.109 226.514 239.005C226.31 239.901 225.806 240.724 225.066 241.37C224.326 242.017 223.384 242.456 222.358 242.635C221.332 242.813 220.268 242.721 219.302 242.372C218.335 242.022 217.509 241.43 216.928 240.67C216.347 239.911 216.037 239.018 216.037 238.104C216.037 237.497 216.173 236.897 216.439 236.336C216.705 235.776 217.094 235.266 217.586 234.837C218.077 234.409 218.66 234.068 219.302 233.836C219.943 233.604 220.631 233.485 221.326 233.485Z" fill="white"/>
<path d="M218.55 294.28C217.429 293.335 216.365 292.338 215.365 291.294L215.628 291.089H217.557C226.327 291.087 235.041 292.32 243.362 294.741L249.001 296.374L253.794 294.971C262.662 292.39 271.948 291.071 281.295 291.066H282.815C278.932 295.09 274.15 298.38 268.761 300.735C263.373 303.089 257.491 304.459 251.475 304.76C245.46 305.061 239.437 304.287 233.776 302.485C228.115 300.684 222.934 297.892 218.55 294.282V294.28Z" fill="#FDC75B"/>
<path d="M212.091 243.847C212.61 243.852 213.116 243.99 213.545 244.246C213.974 244.501 214.306 244.862 214.501 245.282C214.696 245.702 214.744 246.163 214.639 246.608C214.535 247.052 214.282 247.459 213.913 247.777C213.544 248.096 213.075 248.313 212.565 248.399C212.056 248.486 211.528 248.439 211.049 248.264C210.57 248.09 210.161 247.795 209.873 247.418C209.586 247.04 209.432 246.597 209.432 246.143C209.431 245.839 209.499 245.538 209.632 245.257C209.766 244.976 209.962 244.722 210.209 244.508C210.457 244.294 210.751 244.125 211.074 244.012C211.397 243.898 211.743 243.842 212.091 243.847Z" fill="white"/>
<path d="M279.336 230.013C276.723 230.013 274.17 230.69 271.998 231.957C269.825 233.225 268.132 235.027 267.132 237.135C266.133 239.243 265.871 241.562 266.381 243.8C266.89 246.038 268.149 248.093 269.996 249.707C271.843 251.32 274.197 252.419 276.759 252.864C279.321 253.309 281.977 253.081 284.391 252.208C286.805 251.334 288.868 249.856 290.319 247.959C291.771 246.062 292.545 243.831 292.545 241.549C292.547 240.034 292.207 238.533 291.543 237.133C290.88 235.733 289.907 234.46 288.68 233.389C287.453 232.317 285.996 231.468 284.393 230.888C282.79 230.309 281.071 230.012 279.336 230.013ZM272.732 248.466C272.211 248.466 271.703 248.332 271.271 248.079C270.838 247.827 270.501 247.468 270.302 247.048C270.103 246.629 270.051 246.167 270.152 245.721C270.254 245.276 270.504 244.867 270.872 244.545C271.24 244.224 271.708 244.005 272.218 243.917C272.729 243.828 273.257 243.874 273.738 244.048C274.218 244.221 274.629 244.516 274.918 244.893C275.207 245.271 275.362 245.715 275.362 246.169C275.358 246.778 275.08 247.36 274.587 247.79C274.095 248.22 273.428 248.463 272.732 248.466ZM281.963 242.698C280.917 242.698 279.894 242.427 279.024 241.92C278.155 241.412 277.477 240.691 277.076 239.846C276.676 239.002 276.571 238.074 276.775 237.178C276.979 236.282 277.483 235.459 278.223 234.812C278.963 234.167 279.905 233.726 280.931 233.548C281.957 233.37 283.021 233.461 283.987 233.811C284.954 234.161 285.78 234.753 286.361 235.512C286.942 236.272 287.252 237.165 287.252 238.079C287.252 239.303 286.696 240.478 285.705 241.344C284.714 242.21 283.37 242.697 281.968 242.698H281.963Z" fill="black"/>
<path d="M218.666 253.086C221.279 253.086 223.833 252.41 226.005 251.142C228.177 249.875 229.87 248.073 230.87 245.965C231.87 243.857 232.131 241.537 231.622 239.299C231.112 237.062 229.854 235.006 228.007 233.393C226.159 231.779 223.805 230.681 221.243 230.236C218.681 229.79 216.025 230.019 213.611 230.892C211.198 231.765 209.135 233.244 207.683 235.141C206.232 237.038 205.457 239.269 205.457 241.55C205.455 243.065 205.796 244.566 206.459 245.967C207.122 247.367 208.095 248.639 209.322 249.711C210.549 250.782 212.006 251.632 213.609 252.211C215.213 252.79 216.931 253.088 218.666 253.086ZM221.325 233.484C222.371 233.484 223.394 233.756 224.263 234.263C225.133 234.771 225.811 235.492 226.212 236.336C226.612 237.18 226.717 238.109 226.513 239.005C226.309 239.901 225.805 240.724 225.065 241.37C224.325 242.016 223.383 242.456 222.357 242.635C221.331 242.813 220.267 242.721 219.301 242.372C218.334 242.022 217.508 241.43 216.927 240.67C216.346 239.911 216.036 239.018 216.036 238.104C216.036 237.497 216.172 236.897 216.438 236.336C216.704 235.775 217.094 235.266 217.585 234.837C218.076 234.408 218.659 234.068 219.301 233.836C219.943 233.604 220.631 233.484 221.326 233.484H221.325ZM212.093 243.847C212.612 243.852 213.118 243.991 213.547 244.246C213.976 244.501 214.309 244.862 214.504 245.282C214.699 245.702 214.747 246.163 214.642 246.608C214.537 247.052 214.284 247.459 213.915 247.778C213.546 248.096 213.077 248.313 212.568 248.399C212.058 248.486 211.531 248.439 211.052 248.264C210.573 248.09 210.163 247.795 209.876 247.418C209.588 247.04 209.435 246.597 209.435 246.144C209.433 245.84 209.501 245.539 209.634 245.258C209.768 244.977 209.964 244.722 210.211 244.509C210.458 244.295 210.752 244.126 211.075 244.013C211.398 243.899 211.743 243.843 212.091 243.847H212.093Z" fill="black"/>
<path d="M294.212 210.335C283.34 200.852 268.922 195.104 253.595 194.143C238.268 193.183 223.058 197.073 210.746 205.103C199.949 212.167 191.965 222.014 187.922 233.255C185.983 238.613 184.998 244.2 185 249.819V308.675C185.008 311.893 186.348 314.999 188.774 317.421C191.199 319.843 194.546 321.417 198.196 321.852C201.846 322.288 205.554 321.555 208.634 319.79C211.714 318.025 213.959 315.346 214.955 312.249C215.021 311.992 215.184 311.762 215.417 311.595C215.65 311.429 215.94 311.335 216.241 311.329H216.793C217.097 311.341 217.387 311.44 217.62 311.611C217.852 311.781 218.014 312.015 218.079 312.274C218.974 315.071 220.892 317.536 223.541 319.292C226.19 321.048 229.424 321.998 232.75 321.998C236.076 321.998 239.31 321.048 241.959 319.292C244.608 317.536 246.526 315.071 247.421 312.274C247.485 312.014 247.647 311.781 247.879 311.61C248.112 311.439 248.403 311.34 248.706 311.329H249.291C249.594 311.34 249.886 311.438 250.119 311.609C250.351 311.78 250.512 312.014 250.576 312.274C251.471 315.071 253.389 317.536 256.038 319.292C258.687 321.048 261.922 321.998 265.247 321.998C268.573 321.998 271.807 321.048 274.456 319.292C277.105 317.536 279.023 315.071 279.918 312.274C279.979 312.013 280.139 311.777 280.372 311.606C280.606 311.435 280.899 311.337 281.204 311.329H281.759C282.063 311.34 282.354 311.438 282.587 311.609C282.82 311.78 282.981 312.014 283.045 312.274C284.041 315.373 286.289 318.054 289.372 319.819C292.455 321.584 296.166 322.314 299.818 321.876C303.471 321.437 306.818 319.858 309.241 317.432C311.664 315.005 312.999 311.894 313 308.675V249.819C313.002 244.2 312.017 238.613 310.078 233.255C306.985 224.608 301.542 216.745 294.212 210.335ZM302.188 241.553C302.182 246.581 300.001 251.421 296.082 255.105C292.163 258.788 286.795 261.043 281.053 261.416C275.312 261.79 269.621 260.255 265.12 257.119C260.619 253.984 257.641 249.478 256.782 244.507C255.923 239.535 257.247 234.463 260.489 230.307C263.73 226.151 268.649 223.219 274.261 222.096C279.874 220.974 285.764 221.745 290.753 224.255C295.742 226.765 299.461 230.828 301.165 235.631C301.845 237.548 302.191 239.543 302.19 241.55L302.188 241.553ZM288.63 274.066H209.373C209.198 273.045 209.078 272.279 208.994 271.258H289.01C288.922 272.279 288.805 273.045 288.63 274.066ZM223.809 266.154C236.259 264.368 245.933 255.179 247.221 244.205H250.757C252.042 255.18 261.715 264.368 274.168 266.154H223.809ZM214.254 209.187C225.437 201.892 239.254 198.36 253.176 199.237C267.098 200.113 280.192 205.34 290.062 213.96C292.997 216.537 295.612 219.377 297.865 222.433C297.426 222.102 296.958 221.77 296.491 221.466C291.532 218.231 285.497 216.501 279.307 216.54C272.189 216.532 265.323 218.838 260.045 223.009C254.767 227.179 251.456 232.916 250.755 239.102H247.221C246.706 234.689 244.861 230.474 241.875 226.886C238.888 223.298 234.867 220.465 230.219 218.676C225.571 216.887 220.464 216.205 215.416 216.7C210.369 217.195 205.562 218.849 201.485 221.494C201.028 221.78 200.589 222.087 200.169 222.413C203.925 217.307 208.695 212.828 214.254 209.187ZM196.836 235.631C198.541 230.819 202.266 226.747 207.264 224.232C212.261 221.717 218.162 220.943 223.785 222.067C229.408 223.191 234.337 226.129 237.584 230.292C240.832 234.455 242.158 239.536 241.298 244.517C240.438 249.498 237.454 254.011 232.945 257.153C228.435 260.294 222.733 261.831 216.981 261.456C211.229 261.081 205.852 258.822 201.926 255.131C198.001 251.44 195.817 246.59 195.813 241.553C195.814 239.544 196.159 237.548 196.836 235.628V235.631ZM241.811 310.873C241.265 312.594 240.089 314.113 238.463 315.197C236.837 316.28 234.849 316.87 232.804 316.876C230.758 316.882 228.766 316.303 227.132 315.229C225.497 314.154 224.31 312.642 223.751 310.924C223.363 309.578 222.471 308.384 221.215 307.533C219.96 306.681 218.414 306.222 216.825 306.228H216.27C214.688 306.236 213.154 306.701 211.907 307.551C210.659 308.4 209.768 309.586 209.373 310.924C208.75 312.834 207.357 314.484 205.452 315.569C203.546 316.653 201.255 317.1 199.002 316.826C196.749 316.553 194.686 315.577 193.191 314.079C191.697 312.581 190.873 310.662 190.871 308.675V249.819C190.871 249.232 190.93 248.62 190.959 248.007C192.4 252.578 195.286 256.703 199.286 259.908C203.287 263.113 208.24 265.27 213.579 266.131H203.119V268.734C203.103 271.542 203.456 274.342 204.171 277.08C205.697 282.897 208.771 288.318 213.143 292.904C214.203 294.022 215.335 295.088 216.533 296.094C224.189 302.506 234.135 306.425 244.706 307.195C243.291 308.098 242.27 309.394 241.812 310.871L241.811 310.873ZM249.001 302.294C239.204 302.348 229.712 299.322 222.259 293.77C229.13 294.132 235.918 295.273 242.453 297.164L248.999 299.079L254.727 297.394C261.505 295.411 268.548 294.201 275.681 293.795C268.241 299.328 258.774 302.344 249.002 302.293L249.001 302.294ZM307.157 308.675C307.148 310.655 306.323 312.565 304.831 314.056C303.339 315.546 301.282 316.517 299.037 316.79C296.792 317.063 294.51 316.62 292.609 315.542C290.708 314.464 289.316 312.823 288.688 310.921C288.278 309.586 287.379 308.405 286.128 307.557C284.878 306.71 283.345 306.243 281.762 306.228H281.207C279.622 306.226 278.082 306.688 276.833 307.539C275.583 308.39 274.695 309.581 274.309 310.924C273.754 312.643 272.569 314.156 270.937 315.233C269.304 316.31 267.314 316.891 265.268 316.888C263.222 316.886 261.234 316.299 259.606 315.217C257.977 314.136 256.798 312.619 256.249 310.898C255.795 309.42 254.76 308.128 253.327 307.248C259.467 306.798 265.442 305.281 270.902 302.787C276.362 300.293 281.197 296.873 285.123 292.726C289.336 288.244 292.315 282.978 293.832 277.332C294.572 274.529 294.935 271.659 294.913 268.782V266.154H284.509C289.848 265.292 294.801 263.136 298.801 259.93C302.802 256.725 305.688 252.601 307.129 248.029C307.158 248.616 307.217 249.229 307.217 249.842V308.672H307.158L307.157 308.675Z" fill="black"/>
</svg>
