<svg width="512" height="512" viewBox="0 0 512 512" fill="none" xmlns="http://www.w3.org/2000/svg">
<path d="M391.251 388.357C407.069 371.686 418.27 352.051 423.982 330.982C426.805 320.545 428.218 309.855 428.191 299.13H83.8098C83.8023 309.579 85.1751 319.993 87.9011 330.167C93.6134 351.898 105.107 372.149 121.451 389.278C137.88 406.453 158.474 420.227 181.743 429.601C205.013 438.977 230.376 443.72 256 443.488C281.81 443.607 307.329 438.724 330.716 429.191C354.105 419.657 374.779 405.712 391.251 388.357ZM489.093 160.08C496.394 180.574 500.099 201.913 500.083 223.376V458.8C500.083 469.203 495.764 479.252 487.928 487.086C480.091 494.92 469.268 500.006 457.464 501.402C445.661 502.798 433.678 500.409 423.738 494.677C413.798 488.946 406.574 480.262 403.406 470.234C402.506 467.018 400.413 464.152 397.452 462.084C394.492 460.016 390.831 458.861 387.041 458.8H384.82C381.029 458.861 377.368 460.016 374.408 462.084C371.448 464.152 369.355 467.018 368.454 470.234C365.584 479.303 359.389 487.3 350.816 492.999C342.243 498.698 331.767 501.783 320.994 501.783C310.22 501.783 299.743 498.698 291.171 492.999C282.599 487.3 276.402 479.303 273.533 470.234C272.633 467.018 270.539 464.152 267.579 462.084C264.618 460.016 260.958 458.861 257.168 458.8H254.831C251.04 458.861 247.38 460.016 244.42 462.084C241.459 464.152 239.366 467.018 238.465 470.234C235.596 479.303 229.4 487.3 220.828 492.999C212.254 498.698 201.779 501.783 191.005 501.783C180.231 501.783 169.755 498.698 161.182 492.999C152.61 487.3 146.413 479.303 143.544 470.234C142.644 467.018 140.55 464.152 137.59 462.084C134.629 460.016 130.969 458.861 127.179 458.8H124.957C121.167 458.861 117.506 460.016 114.546 462.084C111.586 464.152 109.492 467.018 108.591 470.234C105.424 480.262 98.2009 488.946 88.2603 494.677C78.3201 500.409 66.3375 502.798 54.5341 501.402C42.7307 500.006 31.9073 494.92 24.0706 487.086C16.2339 479.252 11.9155 469.203 11.9161 458.8V223.275C11.9001 201.813 15.6061 180.473 22.9082 159.979L36.1189 163.349C33.1108 172.022 31.5761 181.035 31.5637 190.097C31.5637 213.977 42.4258 236.88 61.7603 253.765C81.095 270.651 107.318 280.137 134.661 280.137C162.005 280.137 188.228 270.651 207.563 253.765C226.897 236.88 237.759 213.977 237.759 190.097H274.115C274.115 213.977 284.978 236.88 304.312 253.765C323.646 270.651 349.869 280.137 377.213 280.137C404.556 280.137 430.78 270.651 450.114 253.765C469.448 236.88 480.311 213.977 480.311 190.097C480.306 181.034 478.77 172.021 475.752 163.349L489.093 160.08Z" fill="#ED664C"/>
<path d="M489.095 160.082L475.887 163.46C468.55 142.894 453.018 125.305 432.108 113.881C411.197 102.457 386.292 97.9542 361.907 101.189C337.522 104.424 315.271 115.182 299.187 131.513C283.104 147.844 274.252 168.667 274.238 190.208H237.882C237.866 168.669 229.013 147.848 212.93 131.518C196.847 115.189 174.597 104.432 150.214 101.197C125.83 97.9626 100.927 102.465 80.0169 113.887C59.1073 125.309 43.5752 142.896 36.2361 163.46L23.0254 160.082C38.4862 116.663 69.4419 78.7004 111.369 51.7413C153.295 24.7823 203.995 10.2402 256.061 10.2402C308.125 10.2402 358.826 24.7823 400.752 51.7413C442.679 78.7004 473.634 116.663 489.095 160.082Z" fill="#ED664C"/>
<path d="M475.772 163.451C478.78 172.123 480.316 181.133 480.33 190.195C480.239 212.82 470.365 234.579 452.685 251.116C435.005 267.654 410.825 277.748 384.987 279.378C359.148 281.008 333.558 274.053 313.34 259.907C293.123 245.76 279.771 225.466 275.958 203.087C272.144 180.709 278.151 157.899 292.776 139.223C307.4 120.548 329.562 107.387 354.824 102.375C380.087 97.3636 406.585 100.871 429.012 112.195C451.439 123.52 468.14 141.825 475.772 163.446V163.451ZM430.182 190.195C430.182 181.068 427.083 172.147 421.277 164.558C415.471 156.97 407.219 151.056 397.564 147.563C387.91 144.07 377.286 143.156 367.037 144.937C356.788 146.717 347.373 151.112 339.983 157.566C332.594 164.019 327.561 172.241 325.523 181.193C323.485 190.144 324.531 199.422 328.53 207.853C332.529 216.286 339.301 223.492 347.99 228.563C356.679 233.633 366.894 236.339 377.345 236.339C384.285 236.346 391.159 235.156 397.573 232.839C403.986 230.522 409.814 227.124 414.722 222.838C419.629 218.552 423.521 213.462 426.174 207.861C428.826 202.26 430.189 196.256 430.182 190.195Z" fill="#FDC75B"/>
<path d="M83.8185 299.029H428.201C428.233 309.754 426.82 320.445 423.991 330.881L419.782 330.063H87.9099C85.1775 319.892 83.8046 309.478 83.8185 299.029Z" fill="white"/>
<path d="M387.868 157.938C392.053 157.938 396.143 159.022 399.622 161.053C403.102 163.083 405.813 165.969 407.415 169.345C409.016 172.722 409.435 176.437 408.618 180.021C407.803 183.605 405.788 186.897 402.828 189.482C399.87 192.066 396.099 193.826 391.995 194.539C387.892 195.252 383.637 194.885 379.771 193.487C375.906 192.088 372.601 189.72 370.277 186.682C367.951 183.643 366.711 180.071 366.711 176.416C366.711 173.99 367.258 171.586 368.321 169.344C369.383 167.102 370.942 165.065 372.906 163.35C374.871 161.634 377.204 160.273 379.771 159.345C382.338 158.416 385.089 157.938 387.868 157.938Z" fill="white"/>
<path d="M350.926 199.387C353.002 199.407 355.025 199.962 356.741 200.984C358.457 202.006 359.788 203.448 360.567 205.129C361.347 206.81 361.539 208.654 361.12 210.431C360.701 212.207 359.689 213.835 358.213 215.11C356.737 216.386 354.862 217.251 352.824 217.597C350.785 217.944 348.675 217.756 346.759 217.057C344.843 216.359 343.206 215.18 342.055 213.671C340.904 212.162 340.29 210.388 340.291 208.574C340.326 206.131 341.461 203.796 343.451 202.077C345.441 200.357 348.126 199.392 350.926 199.387Z" fill="white"/>
<path d="M134.666 100.155C155.057 100.157 174.989 105.438 191.942 115.333C208.896 125.227 222.109 139.289 229.912 155.743C237.714 172.195 239.755 190.299 235.776 207.765C231.798 225.23 221.978 241.273 207.56 253.865C193.141 266.456 174.77 275.031 154.772 278.505C134.772 281.979 114.044 280.196 95.2051 273.381C76.3668 266.565 60.2655 255.025 48.9372 240.218C37.609 225.411 31.5625 208.003 31.5625 190.195C31.5671 181.132 33.103 172.119 36.1207 163.446C42.6811 145.104 55.7799 129.07 73.5068 117.685C91.2339 106.3 112.662 100.158 134.666 100.155ZM187.503 190.195C187.503 181.068 184.405 172.147 178.599 164.558C172.792 156.97 164.541 151.056 154.886 147.563C145.231 144.07 134.608 143.156 124.359 144.937C114.109 146.718 104.695 151.113 97.3044 157.566C89.9155 164.019 84.8833 172.242 82.8445 181.193C80.8058 190.144 81.8522 199.422 85.8513 207.854C89.8504 216.286 96.6226 223.493 105.311 228.563C114.001 233.634 124.216 236.34 134.666 236.34C141.607 236.346 148.48 235.157 154.894 232.839C161.308 230.523 167.136 227.124 172.044 222.838C176.951 218.552 180.843 213.463 183.495 207.861C186.148 202.26 187.51 196.257 187.503 190.195Z" fill="#FDC75B"/>
<path d="M145.304 157.938C149.488 157.938 153.578 159.022 157.058 161.053C160.537 163.083 163.249 165.969 164.85 169.345C166.451 172.722 166.87 176.437 166.055 180.021C165.238 183.605 163.223 186.897 160.265 189.482C157.305 192.066 153.536 193.826 149.431 194.539C145.327 195.252 141.073 194.885 137.208 193.487C133.341 192.088 130.037 189.72 127.712 186.682C125.388 183.643 124.146 180.071 124.146 176.416C124.146 173.99 124.693 171.586 125.756 169.344C126.819 167.102 128.377 165.065 130.343 163.35C132.308 161.634 134.64 160.273 137.207 159.345C139.774 158.416 142.526 157.938 145.304 157.938Z" fill="white"/>
<path d="M134.2 401.121C129.714 397.339 125.461 393.351 121.459 389.176L122.511 388.358H130.227C165.309 388.348 200.162 393.28 233.446 402.963L256.006 409.498L275.178 403.883C310.648 393.559 347.79 388.286 385.18 388.264H391.259C375.728 404.361 356.6 417.521 335.045 426.939C313.491 436.357 289.963 441.836 265.902 443.04C241.839 444.244 217.748 441.148 195.103 433.942C172.458 426.735 151.735 415.569 134.2 401.129V401.121Z" fill="#FDC75B"/>
<path d="M108.364 199.387C110.44 199.406 112.463 199.962 114.179 200.984C115.894 202.005 117.226 203.447 118.004 205.128C118.784 206.809 118.976 208.654 118.557 210.43C118.138 212.206 117.127 213.835 115.651 215.109C114.175 216.385 112.3 217.251 110.261 217.597C108.223 217.943 106.113 217.755 104.197 217.057C102.28 216.358 100.644 215.18 99.4925 213.67C98.3424 212.161 97.7276 210.388 97.7286 208.574C97.7228 207.358 97.9953 206.153 98.5286 205.029C99.0629 203.906 99.8474 202.887 100.838 202.032C101.829 201.176 103.004 200.502 104.296 200.047C105.588 199.594 106.971 199.369 108.364 199.387Z" fill="white"/>
<path d="M377.345 144.053C366.894 144.053 356.679 146.759 347.99 151.83C339.301 156.901 332.529 164.108 328.53 172.539C324.531 180.971 323.484 190.249 325.523 199.2C327.561 208.151 332.594 216.374 339.983 222.827C347.373 229.28 356.788 233.675 367.036 235.455C377.285 237.236 387.91 236.323 397.564 232.83C407.219 229.337 415.471 223.423 421.277 215.835C427.082 208.246 430.182 199.325 430.182 190.198C430.188 184.136 428.826 178.133 426.174 172.532C423.521 166.93 419.629 161.841 414.721 157.555C409.814 153.269 403.986 149.87 397.573 147.553C391.159 145.237 384.285 144.048 377.345 144.053ZM350.927 217.865C348.846 217.865 346.812 217.326 345.082 216.317C343.352 215.307 342.003 213.872 341.207 212.194C340.411 210.515 340.202 208.668 340.609 206.886C341.015 205.103 342.017 203.466 343.488 202.181C344.959 200.897 346.833 200.021 348.874 199.667C350.915 199.313 353.03 199.495 354.952 200.19C356.874 200.885 358.517 202.063 359.672 203.574C360.828 205.085 361.446 206.861 361.446 208.678C361.431 211.111 360.318 213.44 358.348 215.16C356.378 216.88 353.712 217.852 350.927 217.865ZM387.852 194.793C383.668 194.793 379.577 193.709 376.098 191.679C372.618 189.649 369.907 186.762 368.306 183.386C366.704 180.01 366.285 176.294 367.101 172.71C367.918 169.127 369.933 165.834 372.892 163.25C375.85 160.666 379.621 158.905 383.724 158.193C387.828 157.48 392.082 157.846 395.949 159.244C399.815 160.643 403.119 163.012 405.444 166.05C407.769 169.088 409.01 172.66 409.01 176.316C409.01 181.213 406.784 185.91 402.821 189.376C398.858 192.84 393.481 194.789 387.873 194.793H387.852Z" fill="black"/>
<path d="M134.665 236.345C145.115 236.345 155.33 233.639 164.019 228.568C172.709 223.498 179.48 216.291 183.479 207.86C187.479 199.427 188.525 190.149 186.487 181.198C184.448 172.247 179.415 164.024 172.026 157.571C164.637 151.118 155.222 146.723 144.973 144.942C134.724 143.162 124.1 144.076 114.445 147.569C104.791 151.061 96.5385 156.975 90.7327 164.564C84.9269 172.152 81.8282 181.074 81.8282 190.2C81.8211 196.262 83.183 202.265 85.8358 207.866C88.4887 213.468 92.3803 218.557 97.2879 222.843C102.196 227.13 108.024 230.528 114.436 232.844C120.85 235.162 127.724 236.351 134.665 236.345ZM145.3 157.938C149.484 157.938 153.574 159.022 157.054 161.052C160.533 163.082 163.245 165.969 164.846 169.345C166.447 172.721 166.867 176.437 166.051 180.021C165.234 183.605 163.219 186.898 160.26 189.481C157.301 192.066 153.532 193.826 149.427 194.538C145.323 195.251 141.069 194.885 137.203 193.487C133.337 192.088 130.033 189.72 127.708 186.681C125.384 183.643 124.142 180.071 124.142 176.415C124.142 173.989 124.689 171.586 125.752 169.344C126.816 167.101 128.374 165.064 130.34 163.349C132.304 161.633 134.638 160.272 137.204 159.343C139.772 158.415 142.524 157.938 145.303 157.938H145.3ZM108.374 199.387C110.45 199.407 112.474 199.963 114.189 200.984C115.905 202.006 117.236 203.447 118.015 205.128C118.794 206.809 118.986 208.654 118.567 210.431C118.148 212.206 117.137 213.835 115.661 215.11C114.185 216.385 112.31 217.251 110.271 217.598C108.233 217.943 106.123 217.755 104.207 217.057C102.291 216.358 100.654 215.18 99.5037 213.67C98.3527 212.161 97.7388 210.388 97.7388 208.575C97.733 207.359 98.0045 206.154 98.5379 205.032C99.0712 203.909 99.8557 202.89 100.845 202.034C101.834 201.179 103.009 200.504 104.3 200.05C105.591 199.596 106.972 199.37 108.365 199.387H108.374Z" fill="black"/>
<path d="M436.848 65.3415C393.359 27.408 335.687 4.41665 274.38 0.573606C213.073 -3.26944 152.231 12.2928 102.985 44.4132C59.7964 72.668 27.8612 112.057 11.6894 157.019C3.93325 178.452 -0.00911833 200.799 1.58359e-05 223.277V458.701C0.0319311 471.571 5.39355 483.997 15.0952 493.684C24.797 503.372 38.1838 509.667 52.7849 511.409C67.386 513.151 82.2156 510.221 94.5367 503.161C106.857 496.1 115.838 485.385 119.82 472.994C120.085 471.968 120.735 471.048 121.667 470.382C122.599 469.715 123.759 469.341 124.964 469.318H127.174C128.388 469.364 129.55 469.759 130.48 470.443C131.41 471.126 132.055 472.058 132.316 473.094C135.894 484.284 143.567 494.143 154.164 501.168C164.76 508.192 177.697 511.993 191 511.993C204.302 511.993 217.239 508.192 227.835 501.168C238.432 494.143 246.105 484.284 249.682 473.094C249.941 472.057 250.586 471.123 251.517 470.44C252.448 469.757 253.611 469.362 254.826 469.318H257.163C258.378 469.359 259.543 469.753 260.474 470.437C261.405 471.121 262.049 472.056 262.305 473.094C265.883 484.284 273.556 494.143 284.152 501.168C294.749 508.192 307.686 511.993 320.989 511.993C334.291 511.993 347.228 508.192 357.824 501.168C368.42 494.143 376.094 484.284 379.671 473.094C379.916 472.051 380.557 471.11 381.489 470.424C382.423 469.738 383.595 469.348 384.815 469.318H387.036C388.251 469.359 389.417 469.753 390.348 470.437C391.279 471.121 391.923 472.056 392.179 473.094C396.164 485.494 405.154 496.215 417.488 503.275C429.821 510.335 444.665 513.257 459.273 511.503C473.882 509.747 487.27 503.433 496.963 493.726C506.655 484.02 511.996 471.578 512 458.698V223.277C512.009 200.799 508.067 178.452 500.311 157.019C487.94 122.434 466.166 90.9785 436.848 65.3415ZM468.752 190.21C468.728 210.323 460.005 229.685 444.328 244.419C428.652 259.154 407.179 268.17 384.213 269.665C361.247 271.159 338.482 265.019 320.48 252.477C302.476 239.934 290.564 221.914 287.128 202.026C283.693 182.138 288.989 161.851 301.954 145.228C314.919 128.606 334.597 116.875 357.046 112.385C379.495 107.896 403.057 110.98 423.013 121.019C442.969 131.059 457.844 147.312 464.66 166.524C467.38 174.191 468.763 182.173 468.761 190.199L468.752 190.21ZM414.518 320.264H97.4936C96.7937 316.18 96.3122 313.118 95.9754 309.034H416.04C415.688 313.118 415.221 316.18 414.518 320.264ZM155.237 288.617C205.034 281.47 243.73 244.716 248.882 200.819H263.027C268.169 244.719 306.862 281.47 356.671 288.617H155.237ZM117.014 60.7467C161.747 31.5695 217.016 17.4404 272.703 20.9465C328.391 24.4525 380.768 45.3591 420.246 79.8382C431.987 90.1461 442.449 101.507 451.459 113.733C449.704 112.408 447.834 111.078 445.964 109.864C426.127 96.9232 401.988 90.0037 377.228 90.1605C348.758 90.1292 321.292 99.3526 300.18 116.035C279.07 132.718 265.822 155.665 263.021 180.409H248.882C246.824 162.757 239.445 145.896 227.499 131.544C215.554 117.193 199.466 105.861 180.876 98.7033C162.285 91.5465 141.855 88.8187 121.666 90.7988C101.476 92.7798 82.2478 99.3967 65.9383 109.977C64.1115 111.121 62.3554 112.347 60.6771 113.654C75.7006 93.2299 94.7792 75.313 117.014 60.7467ZM47.3423 166.524C54.1651 147.275 69.064 130.988 89.0541 120.927C109.044 110.866 132.65 107.773 155.141 112.268C177.631 116.763 197.347 128.514 210.337 145.166C223.327 161.819 228.634 182.143 225.192 202.068C221.751 221.992 209.815 240.046 191.778 252.61C173.741 265.175 150.934 271.324 127.925 269.824C104.917 268.324 83.4071 259.288 67.705 244.524C52.0028 229.76 43.2682 210.36 43.2508 190.21C43.2568 182.177 44.6359 174.19 47.3423 166.513V166.524ZM227.246 467.491C225.061 474.377 220.357 480.452 213.851 484.787C207.346 489.122 199.397 491.481 191.214 491.504C183.031 491.527 175.063 489.213 168.527 484.915C161.99 480.616 157.241 474.569 155.004 467.694C153.453 462.31 149.883 457.535 144.861 454.13C139.84 450.725 133.657 448.887 127.301 448.91H125.079C118.752 448.945 112.615 450.806 107.626 454.203C102.636 457.6 99.0723 462.344 97.4907 467.694C94.9996 475.337 89.4291 481.936 81.8063 486.275C74.1834 490.614 65.0217 492.4 56.0095 491.305C46.9974 490.21 38.7422 486.307 32.7654 480.315C26.7884 474.324 23.4925 466.648 23.485 458.701V223.277C23.485 220.929 23.7184 218.478 23.8366 216.028C29.6007 234.313 41.1444 250.81 57.1459 263.632C73.1475 276.453 92.9598 285.079 114.314 288.523H72.4756V298.936C72.4114 310.169 73.8238 321.37 76.6852 332.321C82.7889 355.588 95.0831 377.272 112.572 395.617C116.811 400.09 121.339 404.35 126.13 408.377C156.756 434.023 196.542 449.699 238.823 452.78C233.164 456.391 229.082 461.577 227.249 467.486L227.246 467.491ZM256.005 433.178C216.818 433.392 178.849 421.289 149.034 399.079C176.52 400.528 203.673 405.093 229.811 412.657L255.995 420.314L278.908 413.575C306.019 405.644 334.191 400.804 362.723 399.179C332.966 421.313 295.094 433.376 256.008 433.172L256.005 433.178ZM488.63 458.701C488.594 466.62 485.29 474.26 479.324 480.223C473.358 486.185 465.13 490.069 456.149 491.161C447.169 492.253 438.04 490.481 430.435 486.168C422.83 481.856 417.262 475.293 414.751 467.684C413.111 462.344 409.515 457.619 404.513 454.229C399.512 450.839 393.378 448.972 387.048 448.91H384.826C378.487 448.905 372.329 450.751 367.331 454.156C362.331 457.559 358.779 462.325 357.238 467.694C355.014 474.572 350.276 480.626 343.747 484.933C337.218 489.24 329.255 491.566 321.072 491.554C312.89 491.543 304.935 489.195 298.422 484.868C291.909 480.542 287.194 474.475 284.996 467.591C283.178 461.679 279.042 456.511 273.307 452.992C297.867 451.19 321.767 445.124 343.607 435.149C365.447 425.174 384.787 411.491 400.492 394.902C417.343 376.975 429.261 355.91 435.326 333.329C438.29 322.116 439.741 310.637 439.651 299.129V288.614H398.037C419.392 285.169 439.204 276.543 455.206 263.722C471.207 250.901 482.75 234.403 488.515 216.118C488.633 218.466 488.866 220.916 488.866 223.368V458.688H488.633L488.63 458.701Z" fill="black"/>
</svg>
